<svg width="28" height="28" viewBox="0 0 28 28" fill="none" xmlns="http://www.w3.org/2000/svg">
<path fill-rule="evenodd" clip-rule="evenodd" d="M13.9994 27.0002C16.2668 27.0008 18.495 26.4083 20.4626 25.2816C22.4303 24.1549 24.069 22.5331 25.2162 20.5772C26.3633 18.6214 26.979 16.3995 27.002 14.1322C27.025 11.8649 26.4546 9.63097 25.3474 7.65225L22.9994 10.0002L18.9994 9.00025L17.9994 5.00024L20.3474 2.65224C18.6136 1.6833 16.6809 1.12448 14.6976 1.0187C12.7143 0.912913 10.7331 1.26297 8.90616 2.042C7.07919 2.82103 5.45501 4.00832 4.15829 5.51272C2.86158 7.01713 1.92681 8.79865 1.42573 10.7205C0.924661 12.6424 0.870612 14.6536 1.26773 16.5996C1.66486 18.5456 2.50259 20.3748 3.71663 21.9466C4.93068 23.5185 6.48874 24.7913 8.27123 25.6674C10.0537 26.5434 12.0132 26.9994 13.9994 27.0002ZM22.8754 4.50024C23.0887 4.70024 23.296 4.90824 23.4974 5.12424L22.9994 5.00024L22.8754 4.50024Z" fill="#8FBFFA"/>
<path d="M26.9601 15.0002C26.7626 17.4813 25.8572 19.8535 24.3512 21.835C22.8453 23.8165 20.8021 25.3241 18.4646 26.1787C16.127 27.0332 13.5933 27.1988 11.1644 26.6557C8.73554 26.1127 6.5136 24.8838 4.76258 23.1151C3.01156 21.3464 1.80506 19.1122 1.28642 16.678C0.767791 14.2437 0.95882 11.7118 1.83682 9.38296C2.71481 7.05411 4.24287 5.02625 6.23945 3.54029C8.23603 2.05433 10.6172 1.17273 13.1001 1.00024" stroke="#4147D5" stroke-linecap="round" stroke-linejoin="round"/>
<path d="M23.0001 10.0002L19.0001 9.00024L18.0001 5.00024L22.0001 1.00024L23.0001 5.00024L27.0001 6.00024L23.0001 10.0002Z" fill="white"/>
<path d="M19.0001 9.00024L23.0001 10.0002L27.0001 6.00024L23.0001 5.00024L22.0001 1.00024L18.0001 5.00024L19.0001 9.00024ZM19.0001 9.00024L14.0001 14.0002M19.5801 16.1802C19.2189 17.1098 18.6317 17.9347 17.8716 18.5804C17.1115 19.226 16.2025 19.672 15.2267 19.878C14.2509 20.084 13.2392 20.0435 12.283 19.7602C11.3268 19.4769 10.4563 18.9597 9.75017 18.2555C9.04408 17.5512 8.52467 16.682 8.23892 15.7265C7.95317 14.7711 7.91009 13.7594 8.11358 12.7831C8.31706 11.8068 8.7607 10.8966 9.40436 10.1349C10.048 9.3731 10.8714 8.7838 11.8001 8.42024" stroke="#4147D5" stroke-linecap="round" stroke-linejoin="round"/>
</svg>
