<svg width="28" height="28" viewBox="0 0 28 28" fill="none" xmlns="http://www.w3.org/2000/svg">
<path fill-rule="evenodd" clip-rule="evenodd" d="M16.4921 3.92133C16.4419 3.41616 16.4162 3.163 16.3147 2.96466C16.185 2.71447 15.9691 2.51969 15.7069 2.41633C15.5004 2.3335 15.2461 2.3335 14.7374 2.3335H13.2627C12.7541 2.3335 12.4997 2.3335 12.2944 2.41516C12.0314 2.51886 11.815 2.71455 11.6854 2.96583C11.5839 3.163 11.5582 3.41616 11.5081 3.9225C11.4124 4.87916 11.3646 5.3575 11.1639 5.62C11.039 5.78392 10.8729 5.91183 10.6826 5.99073C10.4922 6.06963 10.2843 6.09669 10.0801 6.06916C9.75341 6.02483 9.38007 5.72033 8.63574 5.11133C8.24257 4.78933 8.0454 4.62833 7.83424 4.56066C7.56529 4.47472 7.2743 4.48923 7.01524 4.6015C6.81107 4.689 6.63024 4.86983 6.27207 5.22916L5.22907 6.271C4.86974 6.63033 4.69007 6.81116 4.6014 7.01416C4.48914 7.27323 4.47463 7.56422 4.56057 7.83316C4.62824 8.0455 4.78924 8.2415 5.11124 8.63583C5.7214 9.38133 6.0259 9.7535 6.07024 10.0813C6.09755 10.2854 6.07038 10.493 5.99149 10.6832C5.9126 10.8733 5.7848 11.0392 5.62107 11.164C5.35857 11.3647 4.88024 11.4125 3.9224 11.5082C3.41607 11.5583 3.1629 11.584 2.96574 11.6855C2.71467 11.8148 2.51901 12.0307 2.41507 12.2933C2.3334 12.4998 2.3334 12.7542 2.3334 13.2628V14.7375C2.3334 15.2462 2.3334 15.5005 2.41507 15.7058C2.51877 15.9688 2.71446 16.1853 2.96574 16.3148C3.1629 16.4163 3.41607 16.442 3.9224 16.4922C4.87907 16.5878 5.3574 16.6357 5.62107 16.8363C5.78459 16.9613 5.91216 17.1272 5.99084 17.3173C6.06952 17.5075 6.09651 17.7151 6.06907 17.919C6.0259 18.2468 5.7214 18.619 5.1124 19.3645C4.78924 19.7577 4.62824 19.9548 4.56057 20.166C4.47463 20.4349 4.48914 20.7259 4.6014 20.985C4.69007 21.1892 4.86974 21.37 5.22907 21.7282L6.27207 22.7712C6.6314 23.1305 6.81107 23.3102 7.01524 23.3988C7.2743 23.5111 7.56529 23.5256 7.83424 23.4397C8.0454 23.372 8.24257 23.211 8.63574 22.889C9.38124 22.2788 9.7534 21.9743 10.0812 21.93C10.2853 21.9027 10.4929 21.9299 10.6831 22.0087C10.8732 22.0876 11.0391 22.2154 11.1639 22.3792C11.3646 22.6417 11.4124 23.1212 11.5081 24.079C11.5582 24.5842 11.5839 24.8373 11.6854 25.0357C11.8151 25.2859 12.031 25.4806 12.2932 25.584C12.4997 25.6668 12.7541 25.6668 13.2627 25.6668H14.7374C15.2461 25.6668 15.5004 25.6668 15.7057 25.5852C15.9686 25.4818 16.1849 25.2865 16.3147 25.0357C16.4162 24.8373 16.4419 24.5842 16.4921 24.079C16.5877 23.12 16.6356 22.6417 16.8362 22.3792C16.9611 22.2152 17.1272 22.0873 17.3176 22.0084C17.508 21.9295 17.7158 21.9025 17.9201 21.93C18.2467 21.9743 18.6201 22.2788 19.3644 22.8878C19.7576 23.2098 19.9547 23.3708 20.1659 23.4385C20.4349 23.5244 20.7258 23.5099 20.9849 23.3977C21.1891 23.3102 21.3699 23.1293 21.7281 22.77L22.7711 21.7282C23.1304 21.3688 23.3101 21.1892 23.3987 20.985C23.511 20.7259 23.5255 20.4349 23.4396 20.166C23.3719 19.9537 23.2109 19.7577 22.8889 19.3645C22.2799 18.619 21.9754 18.2468 21.9311 17.9202C21.9033 17.7157 21.9303 17.5076 22.0092 17.317C22.0881 17.1264 22.2161 16.9602 22.3802 16.8352C22.6427 16.6368 23.1211 16.5878 24.0789 16.4922C24.5841 16.442 24.8372 16.4163 25.0356 16.3148C25.2862 16.1853 25.4814 15.9694 25.5851 15.707C25.6667 15.5005 25.6667 15.2462 25.6667 14.7375V13.2628C25.6667 12.7542 25.6667 12.4998 25.5851 12.2945C25.4814 12.0315 25.2857 11.8151 25.0344 11.6855C24.8372 11.584 24.5841 11.5583 24.0777 11.5082C23.1211 11.4125 22.6427 11.3647 22.3791 11.164C22.2155 11.0391 22.088 10.8731 22.0093 10.683C21.9306 10.4928 21.9036 10.2853 21.9311 10.0813C21.9742 9.7535 22.2787 9.38133 22.8877 8.63583C23.2109 8.24266 23.3719 8.0455 23.4396 7.83433C23.5255 7.56538 23.511 7.27439 23.3987 7.01533C23.3101 6.81116 23.1304 6.63033 22.7711 6.27216L21.7281 5.22916C21.3687 4.86983 21.1891 4.69016 20.9849 4.6015C20.7258 4.48923 20.4349 4.47472 20.1659 4.56066C19.9547 4.62833 19.7576 4.78933 19.3644 5.11133C18.6189 5.7215 18.2467 6.026 17.9201 6.06916C17.7159 6.09682 17.5081 6.06994 17.3178 5.99125C17.1274 5.91256 16.9613 5.78487 16.8362 5.62116C16.6356 5.35866 16.5877 4.87916 16.4921 3.92133Z" fill="#007BFF" fill-opacity="0.25"/>
<path d="M14.0001 17.5002C15.9331 17.5002 17.5001 15.9332 17.5001 14.0002C17.5001 12.0672 15.9331 10.5002 14.0001 10.5002C12.0671 10.5002 10.5001 12.0672 10.5001 14.0002C10.5001 15.9332 12.0671 17.5002 14.0001 17.5002Z" fill="#007BFF"/>
</svg>
